<svg id="Capa_1" enable-background="new 0 0 512 512" height="512" viewBox="0 0 512 512" width="512" xmlns="http://www.w3.org/2000/svg"><g><g><g><g><g><g><circle cx="256" cy="256" fill="#ffce00" r="256"/></g></g></g></g></g><path d="m512 256c0-19.493-2.179-38.478-6.306-56.723l-75.55-75.55-16.698 126.297-72.939-73.223-91.689 74.573-127.46-127.458-44.358 91.33 32.852 32.852-20.954 121.608 140.978 140.978c8.589.87 17.305 1.316 26.124 1.316 141.385 0 256-114.615 256-256z" fill="#ffa300"/><g><g><g><g><g><ellipse cx="256" cy="254.744" fill="#fff" rx="114.962" ry="114.961" transform="matrix(.982 -.19 .19 .982 -43.76 53.314)"/></g></g></g></g></g><g><g><g><g><g><path d="m256 139.783c-.026 0-.052.001 0 .08v229.921c-.051-.079-.026-.078 0-.078 63.492 0 114.962-51.47 114.962-114.961 0-63.492-51.47-114.962-114.962-114.962z" fill="#e9edf5"/></g></g></g></g></g><g><g><path d="m208.003 245.907c0-14.633 11.862-26.495 26.495-26.495 8.852 0 16.69 4.341 21.502 11.01 4.811-6.669 12.65-11.01 21.502-11.01 14.633 0 26.496 11.862 26.496 26.495 0 31.198-47.997 58.682-47.997 58.682s-47.998-27.484-47.998-58.682z" fill="#ff636e"/></g></g><g fill="#f03049"><path d="m255.994 230.413c-.001-.001-.001-.001 0 0z"/><path d=""/><path d="m277.502 219.411c-8.852 0-16.69 4.341-21.502 11.011.006.008.012.017 0 0v74.167s47.997-27.484 47.997-58.682c0-14.634-11.862-26.496-26.495-26.496z"/><path d="m255.994 230.414.006.008z"/></g><path d="m400.144 123.727v1.436l-19.696 79.271c-5.969 22.333.597 46.148 17.168 62.267l2.528 2.342v100.663h30v-245.979z" fill="#e9edf5"/><path d="m146.451 182.61c0-23.414-18.981-66.51-42.395-66.51s-42.395 43.096-42.395 66.51c0 18.073 11.309 33.503 27.236 39.604v147.492h30v-147.373c16.095-6.016 27.554-21.531 27.554-39.723z" fill="#fff"/></g></svg>