<svg data-name="Layer 1" xmlns="http://www.w3.org/2000/svg" width="888" height="485.489" style=""><rect id="backgroundrect" width="100%" height="100%" x="0" y="0" fill="none" stroke="none"/><title>breakfast</title><g class="currentLayer" style=""><title>Layer 1</title><path d="M119.412109375,253.04498291015625 H90.9932861328125 a3.7677700519561768,3.7677700519561768 0 0 0 -3.7677700519561768,3.7677600383758545 v12.473870277404785 a3.7677700519561768,3.7677700519561768 0 0 0 3.7677700519561768,3.7677700519561768 h4.709410190582275 V291.7445068359375 h19 V273.05438232421875 h4.709410190582275 a3.7677700519561768,3.7677700519561768 0 0 0 3.7677600383758545,-3.7677700519561768 V256.812744140625 A3.7677700519561768,3.7677700519561768 0 0 0 119.412109375,253.04498291015625 z" fill="#04b804" id="svg_1" class="" fill-opacity="1"/><path d="M147.87661743164062,367.205810546875 a146.10548400878906,146.10548400878906 0 0 1 -25.417999267578125,-86.6243667602539 a3.0814199447631836,3.0814199447631836 0 0 0 -2.4052200317382812,-3.075000047683716 V272.11651611328125 H90.03933715820312 v5.315000057220459 h-0.41356000304222107 a3.079710006713867,3.079710006713867 0 0 0 -3.067239999771118,3.3078598976135254 q3.54682993888855,49.44186019897461 -23.953580856323242,88.677001953125 a8.487299919128418,8.487299919128418 0 0 0 -1.5360599756240845,5.143519878387451 l3.2818799018859863,101.51817321777344 a8.7881498336792,8.7881498336792 0 0 0 8.713000297546387,8.48190975189209 h67.88732147216797 a8.791230201721191,8.791230201721191 0 0 0 8.718239784240723,-8.63152027130127 l1.2647099494934082,-98.56587982177734 A17.78874969482422,17.78874969482422 0 0 0 147.87661743164062,367.205810546875 z" fill="#3f3d56" id="svg_2"/><path d="M113.48782348632812,257.10943603515625 a8.128809928894043,8.128809928894043 0 0 1 -16.25762939453125,0 " opacity="0.2" id="svg_3"/><path d="M137.12991333007812,400.92694091796875 h-8.220640182495117 a21.576139450073242,21.576139450073242 0 0 0 -42.648799896240234,0 h-8.221179962158203 a6.066709995269775,6.066709995269775 0 0 0 -5.99616003036499,6.989180088043213 l8.929439544677734,58.041351318359375 h51.274070739746094 l10.84607982635498,-57.845821380615234 A6.066699981689453,6.066699981689453 0 0 0 137.12991333007812,400.92694091796875 z" fill="#04b804" id="svg_4" class="" fill-opacity="1"/><polygon points="827.952 307.634 825.98 386.448 823.538 484.181 740.414 484.181 737.552 369.675 736 307.634 827.952 307.634" fill="#e6e6e6" id="svg_5"/><rect x="775.72314453125" y="265.70391845703125" width="11.76980972290039" height="155.9500274658203" fill="#0bd50b" id="svg_6" class="" fill-opacity="1"/><path d="M822.0667724609375,367.019775390625 l-2.2261099815368652,112.0199966430664 H744.0739135742188 l-2.608259916305542,-131.24365234375 a51.63393020629883,51.63393020629883 0 0 1 40.826881408691406,5.615359783172607 C794.9515991210938,360.8985595703125 809.1729736328125,364.92877197265625 822.0667724609375,367.019775390625 z" fill="#3f3d56" id="svg_7"/><rect x="752.03076171875" y="379.63031005859375" width="10.799920082092285" height="10.799920082092285" fill="#e6e6e6" id="svg_8"/><rect x="759.3869018554688" y="357.5619201660156" width="10.799920082092285" height="10.799920082092285" fill="#e6e6e6" id="svg_9"/><rect x="1311.9989929199219" y="-78.10546875" width="10.799920082092285" height="10.799920082092285" transform="rotate(36.5626, 375.575, -653.921)" fill="#e6e6e6" id="svg_10"/><rect x="1346.7510986328125" y="-66.827880859375" width="10.799920082092285" height="10.799920082092285" transform="rotate(36.5626, 390.814, -661.779)" fill="#e6e6e6" id="svg_11"/><rect x="1313.7071838378906" y="-33.9029541015625" width="10.799920082092285" height="10.799920082092285" transform="rotate(36.5626, 390.873, -639.888)" fill="#e6e6e6" id="svg_12"/><circle cx="805.1476440429688" cy="351.03509521484375" r="2.2068400382995605" fill="#3f3d56" id="svg_13"/><circle cx="760.2752685546875" cy="336.32281494140625" r="2.2068400382995605" fill="#3f3d56" id="svg_14"/><circle cx="797.79150390625" cy="320.87493896484375" r="2.2068400382995605" fill="#3f3d56" id="svg_15"/><circle cx="444.5080871582031" cy="241.75401306152344" r="241.75401306152344" fill="#04b804" id="svg_16" class="" opacity="1" fill-opacity="1"/><path d="M444.508056640625,418.21112060546875 a176.45594787597656,176.45594787597656 0 1 1 124.77436065673828,-51.6827507019043 A175.3035125732422,175.3035125732422 0 0 1 444.508056640625,418.21112060546875 zm0,-342.0314025878906 c-91.29808044433594,0 -165.5742950439453,74.27620697021484 -165.5742950439453,165.5742950439453 c0,91.29769897460938 74.2762222290039,165.5742950439453 165.5742950439453,165.5742950439453 c91.29769897460938,0 165.5742950439453,-74.27660369873047 165.5742950439453,-165.5742950439453 C610.0823974609375,150.4559326171875 535.8057861328125,76.17974853515625 444.508056640625,76.17974853515625 z" opacity="0.2" id="svg_17"/><circle cx="444.5080871582031" cy="241.75401306152344" r="171.0157012939453" fill="#3f3d56" id="svg_18"/><path d="M317.3274230957031,173.37191772460938 a21.70400047302246,21.70400047302246 0 1 1 38.68117904663086,-19.698190689086914 l48.31631851196289,94.87835693359375 a21.70400047302246,21.70400047302246 0 1 1 -38.68117904663086,19.698190689086914 z" fill="#f4b60c" id="svg_19" class="" fill-opacity="1"/><path d="M322.716552734375,183.95449829101562 l-2.2300000190734863,-4.379000186920166 c11.129159927368164,-8.647359848022461 24.197879791259766,-15.006999969482422 38.68117904663086,-19.698190689086914 l2.2300000190734863,4.379000186920166 C345.7223205566406,167.52056884765625 332.38616943359375,173.56149291992188 322.716552734375,183.95449829101562 z" opacity="0.2" id="svg_20"/><path d="M333.1231384277344,204.38986206054688 l-2.2300000190734863,-4.379000186920166 c11.129150390625,-8.647359848022461 24.197879791259766,-15.006999969482422 38.68117141723633,-19.698190689086914 l2.2300000190734863,4.379000186920166 C356.12890625,187.95590209960938 342.7927551269531,193.99685668945312 333.1231384277344,204.38986206054688 z" opacity="0.2" id="svg_21"/><path d="M343.52972412109375,224.8251953125 l-2.2300000190734863,-4.379000186920166 c11.129150390625,-8.647359848022461 24.197879791259766,-15.006999969482422 38.68117904663086,-19.698190689086914 l2.2300000190734863,4.379000186920166 C366.5355224609375,208.39126586914062 353.1993408203125,214.43222045898438 343.52972412109375,224.8251953125 z" opacity="0.2" id="svg_22"/><path d="M353.9363098144531,245.260498046875 l-2.2300000190734863,-4.379000186920166 c11.129159927368164,-8.647359848022461 24.197879791259766,-15.006999969482422 38.68117904663086,-19.698190689086914 l2.2300000190734863,4.379000186920166 C376.94207763671875,228.82659912109375 363.60595703125,234.86749267578125 353.9363098144531,245.260498046875 z" opacity="0.2" id="svg_23" class=""/><path d="M364.3428955078125,265.69586181640625 l-2.2300000190734863,-4.379000186920166 c11.129159927368164,-8.647359848022461 24.197879791259766,-15.006999969482422 38.68117904663086,-19.698190689086914 l2.2300000190734863,4.379000186920166 C387.34869384765625,249.26193237304688 374.01251220703125,255.30288696289062 364.3428955078125,265.69586181640625 z" opacity="0.2" id="svg_24"/><path d="M281.0790710449219,208.89093017578125 a21.70400047302246,21.70400047302246 0 1 1 38.68117904663086,-19.698200225830078 l48.31631851196289,94.87837219238281 a21.70400047302246,21.70400047302246 0 0 1 -38.68117904663086,19.698190689086914 z" fill="#f4b60c" id="svg_25" class="" fill-opacity="1"/><path d="M286.46820068359375,219.4735107421875 l-2.2300000190734863,-4.379000186920166 c11.129159927368164,-8.647359848022461 24.197879791259766,-15.006999969482422 38.68117904663086,-19.698190689086914 l2.2300000190734863,4.379000186920166 C309.4739990234375,203.03958129882812 296.1377868652344,209.08050537109375 286.46820068359375,219.4735107421875 z" opacity="0.2" id="svg_26"/><path d="M296.8747863769531,239.90884399414062 l-2.2300000190734863,-4.379000186920166 c11.129150390625,-8.647359848022461 24.197879791259766,-15.006999969482422 38.68117904663086,-19.698190689086914 l2.2300000190734863,4.379000186920166 C319.88055419921875,223.47491455078125 306.5444030761719,229.515869140625 296.8747863769531,239.90884399414062 z" opacity="0.2" id="svg_27"/><path d="M307.2813720703125,260.3442077636719 l-2.2300000190734863,-4.379000186920166 c11.129150390625,-8.647359848022461 24.197879791259766,-15.006999969482422 38.68117904663086,-19.698190689086914 l2.2300000190734863,4.379000186920166 C330.2871398925781,243.9102783203125 316.95098876953125,249.95120239257812 307.2813720703125,260.3442077636719 z" opacity="0.2" id="svg_28"/><path d="M317.68798828125,280.7795104980469 l-2.2300000190734863,-4.379000186920166 c11.129159927368164,-8.647359848022461 24.197879791259766,-15.006999969482422 38.68117904663086,-19.698190689086914 l2.2300000190734863,4.379000186920166 C340.6937255859375,264.3456115722656 327.3575744628906,270.3865661621094 317.68798828125,280.7795104980469 z" opacity="0.2" id="svg_29"/><path d="M328.0945739746094,301.2148742675781 l-2.2300000190734863,-4.379000186920166 c11.129159927368164,-8.647359848022461 24.197879791259766,-15.006999969482422 38.68117904663086,-19.698190689086914 l2.2300000190734863,4.379000186920166 C351.1003112792969,284.78094482421875 337.76416015625,290.8218994140625 328.0945739746094,301.2148742675781 z" opacity="0.2" id="svg_30"/><path d="M558.7776489257812,247.1954345703125 l0.1525699943304062,0.00013000000035390258 a25.888099670410156,25.888099670410156 0 0 0 24.239240646362305,-16.236190795898438 a84.50283813476562,84.50283813476562 0 0 0 5.923099994659424,-31.69392967224121 c-0.2714399993419647,-45.910728454589844 -37.622230529785156,-83.57514953613281 -83.52935791015625,-84.21021270751953 a84.74394226074219,84.74394226074219 0 0 0 -35.27687072753906,162.32017517089844 a25.66667938232422,25.66667938232422 0 0 0 28.505659103393555,-5.2858500480651855 A84.4581527709961,84.4581527709961 0 0 1 558.7776489257812,247.1954345703125 z" fill="#e6e6e6" id="svg_31"/><circle cx="515.2463989257812" cy="193.55868530273438" r="27.984390258789062" fill="#f9a825" id="svg_32"/><circle cx="454.4262390136719" cy="187.1151580810547" r="3.296689987182617" fill="#3f3d56" id="svg_33"/><circle cx="345.5980529785156" cy="190.2245330810547" r="3.296689987182617" fill="#3f3d56" id="svg_34"/><circle cx="471.99609375" cy="152.94947814941406" r="3.296689987182617" fill="#3f3d56" id="svg_35"/><circle cx="471.9024353027344" cy="247.97276306152344" r="3.296689987182617" fill="#3f3d56" id="svg_36"/><circle cx="537.1993408203125" cy="146.14068603515625" r="3.296689987182617" fill="#3f3d56" id="svg_37"/><circle cx="324.2070617675781" cy="236.31260681152344" r="3.296689987182617" fill="#3f3d56" id="svg_38"/><circle cx="348.3047180175781" cy="283.7305908203125" r="3.296689987182617" fill="#3f3d56" id="svg_39"/><circle cx="499.69952392578125" cy="289.9493408203125" r="12.437509536743164" fill="#ff6584" id="svg_40"/><path d="M509.02764892578125,290.7267150878906 a9.328129768371582,9.328129768371582 0 0 1 -18.656259536743164,0 " opacity="0.2" id="svg_41"/><path d="M490.37139892578125,289.1720275878906 a9.328129768371582,9.328129768371582 0 0 1 18.656259536743164,0 " opacity="0.2" id="svg_42"/><ellipse cx="495.03546142578125" cy="285.6739501953125" rx="0.7773399949073792" ry="1.1660200357437134" fill="#ff6584" id="svg_43"/><ellipse cx="499.69952392578125" cy="284.1192626953125" rx="0.7773399949073792" ry="1.1660200357437134" fill="#ff6584" id="svg_44"/><ellipse cx="499.69952392578125" cy="294.2247619628906" rx="0.7773399949073792" ry="1.1660200357437134" fill="#ff6584" id="svg_45"/><ellipse cx="504.3635559082031" cy="288.0059814453125" rx="0.7773399949073792" ry="1.1660200357437134" fill="#ff6584" id="svg_46"/><ellipse cx="503.58624267578125" cy="296.5567932128906" rx="0.7773399949073792" ry="1.1660200357437134" fill="#ff6584" id="svg_47"/><ellipse cx="494.2580871582031" cy="292.6700744628906" rx="0.7773399949073792" ry="1.1660200357437134" fill="#ff6584" id="svg_48"/><circle cx="524.5745239257812" cy="256.5235595703125" r="12.437509536743164" fill="#ff6584" id="svg_49"/><path d="M533.9026489257812,257.3009033203125 a9.328129768371582,9.328129768371582 0 0 1 -18.656259536743164,0 " opacity="0.2" id="svg_50"/><path d="M515.2463989257812,255.7462158203125 a9.328129768371582,9.328129768371582 0 0 1 18.656259536743164,0 " opacity="0.2" id="svg_51"/><ellipse cx="519.9104614257812" cy="252.24815368652344" rx="0.7773399949073792" ry="1.1660200357437134" fill="#ff6584" id="svg_52"/><ellipse cx="524.5745239257812" cy="250.6934814453125" rx="0.7773399949073792" ry="1.1660200357437134" fill="#ff6584" id="svg_53"/><ellipse cx="524.5745239257812" cy="260.7989501953125" rx="0.7773399949073792" ry="1.1660200357437134" fill="#ff6584" id="svg_54"/><ellipse cx="529.2385864257812" cy="254.5802001953125" rx="0.7773399949073792" ry="1.1660200357437134" fill="#ff6584" id="svg_55"/><ellipse cx="528.4612426757812" cy="263.1309814453125" rx="0.7773399949073792" ry="1.1660200357437134" fill="#ff6584" id="svg_56"/><ellipse cx="519.1331176757812" cy="259.2442626953125" rx="0.7773399949073792" ry="1.1660200357437134" fill="#ff6584" id="svg_57"/><circle cx="549.4495239257812" cy="273.6251220703125" r="12.437509536743164" fill="#04b804" id="svg_58" class="" fill-opacity="1"/><path d="M558.7776489257812,274.4024963378906 a9.328129768371582,9.328129768371582 0 0 1 -18.656259536743164,0 " opacity="0.2" id="svg_59"/><path d="M540.1213989257812,272.8478088378906 a9.328129768371582,9.328129768371582 0 0 1 18.656259536743164,0 " opacity="0.2" id="svg_60"/><ellipse cx="544.7854614257812" cy="269.3497314453125" rx="0.7773399949073792" ry="1.1660200357437134" fill="#6c63ff" id="svg_61"/><ellipse cx="549.4495239257812" cy="267.7950439453125" rx="0.7773399949073792" ry="1.1660200357437134" fill="#6c63ff" id="svg_62"/><ellipse cx="549.4495239257812" cy="277.9005126953125" rx="0.7773399949073792" ry="1.1660200357437134" fill="#6c63ff" id="svg_63" class=""/><ellipse cx="554.1135864257812" cy="271.6817626953125" rx="0.7773399949073792" ry="1.1660200357437134" fill="#6c63ff" id="svg_64"/><ellipse cx="553.3362426757812" cy="280.2325439453125" rx="0.7773399949073792" ry="1.1660200357437134" fill="#6c63ff" id="svg_65"/><ellipse cx="544.0081176757812" cy="276.3458251953125" rx="0.7773399949073792" ry="1.1660200357437134" fill="#6c63ff" id="svg_66"/><circle cx="487.2619934082031" cy="275.1798095703125" r="12.437509536743164" fill="#0bd50b" id="svg_67" class="" fill-opacity="1"/><path d="M496.59014892578125,275.9571533203125 a9.328129768371582,9.328129768371582 0 0 1 -18.656259536743164,0 " opacity="0.2" id="svg_68"/><path d="M477.93389892578125,274.4024963378906 a9.328129768371582,9.328129768371582 0 0 1 18.656259536743164,0 " opacity="0.2" id="svg_69"/><ellipse cx="482.5979309082031" cy="270.9044189453125" rx="0.7773399949073792" ry="1.1660200357437134" fill="#6c63ff" id="svg_70"/><ellipse cx="487.2619934082031" cy="269.3497314453125" rx="0.7773399949073792" ry="1.1660200357437134" fill="#6c63ff" id="svg_71"/><ellipse cx="487.2619934082031" cy="279.4552001953125" rx="0.7773399949073792" ry="1.1660200357437134" fill="#6c63ff" id="svg_72"/><ellipse cx="491.9260559082031" cy="273.2364501953125" rx="0.7773399949073792" ry="1.1660200357437134" fill="#6c63ff" id="svg_73"/><ellipse cx="491.1487121582031" cy="281.7872314453125" rx="0.7773399949073792" ry="1.1660200357437134" fill="#6c63ff" id="svg_74"/><ellipse cx="481.8205871582031" cy="277.9005126953125" rx="0.7773399949073792" ry="1.1660200357437134" fill="#6c63ff" id="svg_75"/><circle cx="515.2463989257812" cy="280.6212158203125" r="12.437509536743164" fill="#04b804" id="svg_76" class="" fill-opacity="1"/><path d="M524.5745239257812,281.3985900878906 a9.328129768371582,9.328129768371582 0 1 1 -18.656259536743164,0 " opacity="0.2" id="svg_77" class=""/><path d="M505.91827392578125,279.8438720703125 a9.328129768371582,9.328129768371582 0 1 1 18.656259536743164,0 " opacity="0.2" id="svg_78"/><ellipse cx="510.58233642578125" cy="276.3458251953125" rx="0.7773399949073792" ry="1.1660200357437134" fill="#6c63ff" id="svg_79" class=""/><ellipse cx="515.2463989257812" cy="274.7911376953125" rx="0.7773399949073792" ry="1.1660200357437134" fill="#6c63ff" id="svg_80"/><ellipse cx="515.2463989257812" cy="284.8966064453125" rx="0.7773399949073792" ry="1.1660200357437134" fill="#6c63ff" id="svg_81"/><ellipse cx="519.9104614257812" cy="278.6778564453125" rx="0.7773399949073792" ry="1.1660200357437134" fill="#6c63ff" id="svg_82"/><ellipse cx="519.1331176757812" cy="287.2286376953125" rx="0.7773399949073792" ry="1.1660200357437134" fill="#6c63ff" id="svg_83"/><ellipse cx="509.80499267578125" cy="283.3419189453125" rx="0.7773399949073792" ry="1.1660200357437134" fill="#6c63ff" id="svg_84"/><circle cx="534.6799926757812" cy="293.8360595703125" r="12.437509536743164" fill="#ff6584" id="svg_85"/><path d="M544.0081176757812,294.6134338378906 a9.328120231628418,9.328120231628418 0 1 1 -18.65625,0 " opacity="0.2" id="svg_86"/><path d="M525.3518676757812,293.0587463378906 a9.328120231628418,9.328120231628418 0 1 1 18.65625,0 " opacity="0.2" id="svg_87"/><ellipse cx="530.0159301757812" cy="289.5606689453125" rx="0.7773399949073792" ry="1.1660200357437134" fill="#ff6584" id="svg_88"/><ellipse cx="534.6799926757812" cy="288.0059814453125" rx="0.7773399949073792" ry="1.1660200357437134" fill="#ff6584" id="svg_89"/><ellipse cx="534.6799926757812" cy="298.1114807128906" rx="0.7773399949073792" ry="1.1660200357437134" fill="#ff6584" id="svg_90"/><ellipse cx="539.3440551757812" cy="291.8927001953125" rx="0.7773399949073792" ry="1.1660200357437134" fill="#ff6584" id="svg_91"/><ellipse cx="538.5667114257812" cy="300.4435119628906" rx="0.7773399949073792" ry="1.1660200357437134" fill="#ff6584" id="svg_92"/><ellipse cx="529.2385864257812" cy="296.5567932128906" rx="0.7773399949073792" ry="1.1660200357437134" fill="#ff6584" id="svg_93"/><circle cx="374.7344055175781" cy="246.41807556152344" r="3.296689987182617" fill="#3f3d56" id="svg_94"/><polygon points="464.345 366.08 385.17 344.123 388.203 332.857 467.378 354.815 464.345 366.08" fill="#f9a825" id="svg_95"/><path d="M452.738037109375,362.31494140625 a218.26828002929688,218.26828002929688 0 0 1 -82.07766723632812,0 V350.6365966796875 a250.9912872314453,250.9912872314453 0 0 0 82.07766723632812,0 z" fill="#f9a825" id="svg_96"/><path d="M461.17596435546875,327.280029296875 a218.26828002929688,218.26828002929688 0 0 1 -82.07766723632812,0 V315.60174560546875 a250.99183654785156,250.99183654785156 0 0 0 82.07766723632812,0 z" fill="#f9a825" id="svg_97"/><path d="M489.5579833984375,341.29400634765625 a218.26832580566406,218.26832580566406 0 0 1 -82.07768249511719,0 v-11.678299903869629 a250.9918975830078,250.9918975830078 0 0 0 82.07768249511719,0 z" fill="#f9a825" id="svg_98"/><path d="M496.461669921875,354.5294189453125 a218.2678680419922,218.2678680419922 0 0 1 -82.07766723632812,0 v-11.678299903869629 a250.99183654785156,250.99183654785156 0 0 0 82.07766723632812,0 z" fill="#f9a825" id="svg_99"/><polygon points="520.531 371.824 439.554 385.426 437.676 373.904 518.652 360.302 520.531 371.824" fill="#f9a825" id="svg_100"/><path d="M508.4349365234375,373.3212890625 a219.97000122070312,219.97000122070312 0 0 1 -74.580078125,34.78438949584961 l-4.804460048675537,-10.611519813537598 a252.95437622070312,252.95437622070312 0 0 0 74.58007049560547,-34.78438949584961 z" fill="#f9a825" id="svg_101"/><path d="M501.68865966796875,337.9107666015625 a219.96990966796875,219.96990966796875 0 0 1 -74.58007049560547,34.78438949584961 l-4.804460048675537,-10.611519813537598 a252.95437622070312,252.95437622070312 0 0 0 74.58007049560547,-34.78438949584961 z" fill="#f9a825" id="svg_102"/><path d="M533.243408203125,338.6163330078125 a219.9697723388672,219.9697723388672 0 0 1 -74.580078125,34.78438949584961 l-4.804460048675537,-10.611510276794434 a252.9547119140625,252.9547119140625 0 0 0 74.580078125,-34.784400939941406 z" fill="#f9a825" id="svg_103"/><path d="M544.9615478515625,347.7169189453125 a219.96990966796875,219.96990966796875 0 0 1 -74.58007049560547,34.78438949584961 L465.5770263671875,371.8897705078125 a252.95437622070312,252.95437622070312 0 0 0 74.58007049560547,-34.78438949584961 z" fill="#f9a825" id="svg_104"/><rect x="442.9533996582031" y="324.9298400878906" width="3.8867199420928955" height="3.8867199420928955" fill="#00bf71" id="svg_105"/><rect x="454.6135559082031" y="392.55877685546875" width="3.8867199420928955" height="3.8867199420928955" fill="#00bf71" id="svg_106"/><rect x="392.426025390625" y="324.9298400878906" width="3.8867199420928955" height="3.8867199420928955" fill="#00bf71" id="svg_107"/><rect x="482.5979309082031" y="373.12518310546875" width="3.8867199420928955" height="3.8867199420928955" fill="#00bf71" id="svg_108"/><rect x="484.9299621582031" y="350.58221435546875" width="3.8867199420928955" height="3.8867199420928955" fill="#00bf71" id="svg_109"/><rect x="825.5636749267578" y="108.20953369140625" width="5.441410064697266" height="3.109380006790161" transform="rotate(34.1557, 250.708, -437.191)" fill="#00bf71" id="svg_110"/><rect x="884.1384887695312" y="92.48553466796875" width="5.441410064697266" height="3.109380006790161" transform="rotate(34.1557, 263.419, -461.465)" fill="#00bf71" id="svg_111"/><rect x="826.8082275390625" y="141.22592163085938" width="5.441410064697266" height="3.109380006790161" transform="rotate(34.1557, 262.058, -427.495)" fill="#00bf71" id="svg_112"/><rect x="1845.7984619140625" y="747.9889373779297" width="5.441410064697266" height="3.109380006790161" transform="rotate(124.156, 1249.18, 182.378)" fill="#00bf71" id="svg_113"/><rect x="1904.0617065429688" y="744.5586700439453" width="5.441410064697266" height="3.109380006790161" transform="rotate(124.156, 1286.45, 173.506)" fill="#00bf71" id="svg_114"/><rect x="673.5784301757812" y="552.3963012695312" width="5.441410064697266" height="3.109380006790161" transform="matrix(-0.56144, 0.82751, -0.82751, -0.56144, 1358.40581, 98.06043)" fill="#00bf71" id="svg_115"/><rect y="483.248291015625" width="888" height="2.24072003364563" fill="#3f3d56" id="svg_116"/></g></svg>